<?xml version="1.0" encoding="iso-8859-1"?>
<!-- Generator: Adobe Illustrator 22.1.0, SVG Export Plug-In . SVG Version: 6.00 Build 0)  -->
<svg xmlns="http://www.w3.org/2000/svg" xmlns:xlink="http://www.w3.org/1999/xlink" version="1.1" id="Layer_3" x="0px" y="0px" viewBox="0 0 64 64" style="enable-background:new 0 0 64 64;" xml:space="preserve" width="512" height="512">
<g>
	<g>
		<rect x="4" y="22" style="fill:#DBD3D1;" width="56" height="32"/>
	</g>
	<g>
		<rect x="4" y="22" style="fill:#F2E8E5;" width="53" height="32"/>
	</g>
	<g>
		<rect x="20" y="30" style="fill:#98572C;" width="12" height="24"/>
	</g>
	<g>
		<rect x="20" y="30" style="fill:#CA743A;" width="9" height="24"/>
	</g>
	<g>
		<rect x="32" y="30" style="fill:#98572C;" width="12" height="24"/>
	</g>
	<g>
		<rect x="32" y="30" style="fill:#CA743A;" width="9" height="24"/>
	</g>
	<g>
		<rect x="10" y="50" style="fill:#999999;" width="4" height="8"/>
	</g>
	<g>
		<rect x="50" y="50" style="fill:#999999;" width="4" height="8"/>
	</g>
	<g>
		<rect x="46" y="48" style="fill:#CCCCCC;" width="4" height="12"/>
	</g>
	<g>
		<rect x="14" y="48" style="fill:#CCCCCC;" width="4" height="12"/>
	</g>
	<g>
		<rect x="40" y="46" transform="matrix(-1 4.486843e-11 -4.486843e-11 -1 86 108)" style="fill:#999999;" width="6" height="16"/>
	</g>
	<g>
		<rect x="18" y="46" transform="matrix(-1 4.486843e-11 -4.486843e-11 -1 42 108)" style="fill:#999999;" width="6" height="16"/>
	</g>
	<g>
		<rect x="24" y="51" style="fill:#CCCCCC;" width="16" height="6"/>
	</g>
	<g>
		<rect x="50" y="26" style="fill:#29ABE2;" width="6" height="16"/>
	</g>
	<g>
		<rect x="50" y="26" style="fill:#7FCDEE;" width="3" height="16"/>
	</g>
	<g>
		<rect x="8" y="26" style="fill:#29ABE2;" width="6" height="16"/>
	</g>
	<g>
		<rect x="8" y="26" style="fill:#7FCDEE;" width="3" height="16"/>
	</g>
	<g>
		<rect x="2" y="10" style="fill:#B3B3B3;" width="60" height="12"/>
	</g>
	<g>
		<rect x="2" y="10" style="fill:#CCCCCC;" width="57" height="12"/>
	</g>
	<g>
		<rect x="15" y="2" style="fill:#244872;" width="34" height="16"/>
	</g>
	<g>
		<rect x="15" y="2" style="fill:#366CAA;" width="31" height="16"/>
	</g>
	<g>
		<path d="M24,63h-6c-0.553,0-1-0.447-1-1V46c0-0.553,0.447-1,1-1h6c0.553,0,1,0.447,1,1v16C25,62.553,24.553,63,24,63z M19,61h4V47    h-4V61z"/>
	</g>
	<g>
		<path d="M18,61h-4c-0.553,0-1-0.447-1-1V48c0-0.553,0.447-1,1-1h4c0.553,0,1,0.447,1,1v12C19,60.553,18.553,61,18,61z M15,59h2V49    h-2V59z"/>
	</g>
	<g>
		<path d="M14,59h-4c-0.553,0-1-0.447-1-1v-8c0-0.553,0.447-1,1-1h4c0.553,0,1,0.447,1,1v8C15,58.553,14.553,59,14,59z M11,57h2v-6    h-2V57z"/>
	</g>
	<g>
		<path d="M46,63h-6c-0.553,0-1-0.447-1-1V46c0-0.553,0.447-1,1-1h6c0.553,0,1,0.447,1,1v16C47,62.553,46.553,63,46,63z M41,61h4V47    h-4V61z"/>
	</g>
	<g>
		<path d="M50,61h-4c-0.553,0-1-0.447-1-1V48c0-0.553,0.447-1,1-1h4c0.553,0,1,0.447,1,1v12C51,60.553,50.553,61,50,61z M47,59h2V49    h-2V59z"/>
	</g>
	<g>
		<path d="M54,59h-4c-0.553,0-1-0.447-1-1v-8c0-0.553,0.447-1,1-1h4c0.553,0,1,0.447,1,1v8C55,58.553,54.553,59,54,59z M51,57h2v-6    h-2V57z"/>
	</g>
	<g>
		<path d="M40,58H24c-0.553,0-1-0.447-1-1v-6c0-0.553,0.447-1,1-1h16c0.553,0,1,0.447,1,1v6C41,57.553,40.553,58,40,58z M25,56h14    v-4H25V56z"/>
	</g>
	<g>
		<path d="M62,23H2c-0.553,0-1-0.447-1-1V10c0-0.553,0.447-1,1-1h13v2H3v10h58V11H49V9h13c0.553,0,1,0.447,1,1v12    C63,22.553,62.553,23,62,23z"/>
	</g>
	<g>
		<path d="M60,55h-6v-2h5V23H5v30h5v2H4c-0.553,0-1-0.447-1-1V22c0-0.553,0.447-1,1-1h56c0.553,0,1,0.447,1,1v32    C61,54.553,60.553,55,60,55z"/>
	</g>
	<g>
		<path d="M49,19H15c-0.553,0-1-0.447-1-1V2c0-0.553,0.447-1,1-1h34c0.553,0,1,0.447,1,1v16C50,18.553,49.553,19,49,19z M16,17h32V3    H16V17z"/>
	</g>
	<g>
		<path d="M25,15h-6c-0.553,0-1-0.447-1-1V6c0-0.553,0.447-1,1-1h7v2h-6v6h4v-2h-2V9h3c0.553,0,1,0.447,1,1v4    C26,14.553,25.553,15,25,15z"/>
	</g>
	<g>
		<path d="M32,11c-2.206,0-4-1.794-4-4V5h2v2c0,1.103,0.897,2,2,2s2-0.897,2-2V5h2v2C36,9.206,34.206,11,32,11z"/>
	</g>
	<g>
		<rect x="31" y="10" width="2" height="5"/>
	</g>
	<g>
		<path d="M46,15h-2v-4.764l-1.105,2.211c-0.34,0.678-1.449,0.678-1.789,0L40,10.236V15h-2V6c0-0.464,0.319-0.866,0.771-0.974    c0.449-0.105,0.917,0.111,1.124,0.526L42,9.764l2.105-4.211c0.207-0.415,0.673-0.633,1.124-0.526C45.681,5.134,46,5.536,46,6V15z"/>
	</g>
	<g>
		<path d="M45,46h-2V31H21v15h-2V30c0-0.553,0.447-1,1-1h24c0.553,0,1,0.447,1,1V46z"/>
	</g>
	<g>
		<rect x="31" y="30" width="2" height="21"/>
	</g>
	<g>
		<path d="M14,43H8c-0.553,0-1-0.447-1-1V26c0-0.553,0.447-1,1-1h6c0.553,0,1,0.447,1,1v16C15,42.553,14.553,43,14,43z M9,41h4V27H9    V41z"/>
	</g>
	<g>
		<path d="M56,43h-6c-0.553,0-1-0.447-1-1V26c0-0.553,0.447-1,1-1h6c0.553,0,1,0.447,1,1v16C57,42.553,56.553,43,56,43z M51,41h4V27    h-4V41z"/>
	</g>
</g>
</svg>
